<svg width="54" height="55" viewBox="0 0 54 55" fill="none" xmlns="http://www.w3.org/2000/svg">
<rect y="0.5" width="54" height="54" rx="27" fill="#30503A"/>
<path d="M16.54 20.54C16.6467 17.6867 17.58 15.4867 19.34 13.94C21.1 12.3933 23.4867 11.62 26.5 11.62C28.5 11.62 30.2067 11.9667 31.62 12.66C33.06 13.3533 34.14 14.3 34.86 15.5C35.6067 16.7 35.98 18.0467 35.98 19.54C35.98 21.3 35.54 22.74 34.66 23.86C33.78 24.9533 32.7533 25.7 31.58 26.1V26.26C33.1 26.7667 34.3 27.6067 35.18 28.78C36.06 29.9533 36.5 31.46 36.5 33.3C36.5 34.9533 36.1133 36.42 35.34 37.7C34.5933 38.9533 33.4867 39.94 32.02 40.66C30.58 41.38 28.86 41.74 26.86 41.74C23.66 41.74 21.1 40.9533 19.18 39.38C17.2867 37.8067 16.2867 35.4333 16.18 32.26H22.82C22.8467 33.4333 23.18 34.3667 23.82 35.06C24.46 35.7267 25.3933 36.06 26.62 36.06C27.66 36.06 28.46 35.7667 29.02 35.18C29.6067 34.5667 29.9 33.7667 29.9 32.78C29.9 31.5 29.4867 30.58 28.66 30.02C27.86 29.4333 26.5667 29.14 24.78 29.14H23.5V23.58H24.78C26.14 23.58 27.2333 23.3533 28.06 22.9C28.9133 22.42 29.34 21.58 29.34 20.38C29.34 19.42 29.0733 18.6733 28.54 18.14C28.0067 17.6067 27.2733 17.34 26.34 17.34C25.3267 17.34 24.5667 17.6467 24.06 18.26C23.58 18.8733 23.3 19.6333 23.22 20.54H16.54Z" fill="white"/>
</svg>
