<svg width="54" height="54" viewBox="0 0 54 54" fill="none" xmlns="http://www.w3.org/2000/svg">
<rect width="54" height="54" rx="27" fill="#30503A"/>
<path d="M17.06 35.52C17.9667 34.8 18.38 34.4667 18.3 34.52C20.9133 32.36 22.9667 30.5867 24.46 29.2C25.98 27.8133 27.26 26.36 28.3 24.84C29.34 23.32 29.86 21.84 29.86 20.4C29.86 19.3067 29.6067 18.4533 29.1 17.84C28.5933 17.2267 27.8333 16.92 26.82 16.92C25.8067 16.92 25.0067 17.3067 24.42 18.08C23.86 18.8267 23.58 19.8933 23.58 21.28H16.98C17.0333 19.0133 17.5133 17.12 18.42 15.6C19.3533 14.08 20.5667 12.96 22.06 12.24C23.58 11.52 25.26 11.16 27.1 11.16C30.2733 11.16 32.66 11.9733 34.26 13.6C35.8867 15.2267 36.7 17.3467 36.7 19.96C36.7 22.8133 35.7267 25.4667 33.78 27.92C31.8333 30.3467 29.3533 32.72 26.34 35.04H37.14V40.6H17.06V35.52Z" fill="white"/>
</svg>
